<svg width="682" height="364" viewBox="0 0 682 364" fill="none" xmlns="http://www.w3.org/2000/svg">
<path d="M245.919 283.612C245.539 283.612 245.217 283.479 244.951 283.214C244.686 282.948 244.553 282.625 244.553 282.246V269.381L231.119 245.587C231.081 245.511 231.043 245.416 231.005 245.302C230.967 245.189 230.948 245.075 230.948 244.961C230.948 244.619 231.062 244.335 231.29 244.107C231.517 243.879 231.783 243.765 232.086 243.765H237.153C237.608 243.765 237.969 243.879 238.234 244.107C238.538 244.335 238.747 244.581 238.86 244.847L248.537 261.412L258.158 244.847C258.309 244.581 258.518 244.335 258.784 244.107C259.087 243.879 259.467 243.765 259.922 243.765H264.931C265.273 243.765 265.558 243.879 265.785 244.107C266.013 244.335 266.127 244.619 266.127 244.961C266.127 245.075 266.108 245.189 266.07 245.302C266.07 245.416 266.032 245.511 265.956 245.587L252.522 269.381V282.246C252.522 282.625 252.389 282.948 252.124 283.214C251.858 283.479 251.516 283.612 251.099 283.612H245.919Z" fill="#003FB0"/>
<path d="M197.7 283.612C197.32 283.612 196.997 283.479 196.732 283.214C196.466 282.948 196.333 282.625 196.333 282.246V245.189C196.333 244.771 196.466 244.43 196.732 244.164C196.997 243.898 197.32 243.765 197.7 243.765H214.207C217.281 243.765 219.786 244.24 221.721 245.189C223.657 246.099 225.08 247.371 225.991 249.002C226.939 250.634 227.414 252.532 227.414 254.695C227.414 256.137 227.148 257.408 226.617 258.509C226.123 259.571 225.497 260.444 224.738 261.127C224.017 261.81 223.296 262.342 222.575 262.721C224.055 263.404 225.364 264.543 226.503 266.136C227.641 267.73 228.211 269.628 228.211 271.829C228.211 274.106 227.698 276.136 226.674 277.92C225.649 279.703 224.131 281.107 222.12 282.132C220.109 283.119 217.623 283.612 214.663 283.612H197.7ZM204.246 277.578H213.752C215.801 277.578 217.357 277.028 218.42 275.927C219.482 274.789 220.014 273.423 220.014 271.829C220.014 270.159 219.463 268.774 218.363 267.673C217.3 266.573 215.763 266.023 213.752 266.023H204.246V277.578ZM204.246 260.103H213.183C215.194 260.103 216.693 259.628 217.68 258.679C218.704 257.693 219.217 256.422 219.217 254.866C219.217 253.272 218.704 252.019 217.68 251.109C216.693 250.198 215.194 249.742 213.183 249.742H204.246V260.103Z" fill="#003FB0"/>
<g clip-path="url(#clip0_1898_7726)">
<path d="M677.709 213.488V229.196H6.53613V213.488H677.75H677.709Z" fill="#FF0000"/>
<path d="M101.249 179.082V104.941C101.249 91.4538 97.3999 81.2776 89.7009 74.453C82.0019 67.6285 71.0149 64.196 56.7798 64.196C41.5423 64.196 29.7933 67.7093 21.4929 74.6953C13.1924 81.6814 8.22019 91.5345 6.53604 104.174H18.8464C20.1696 94.5632 23.9389 87.2541 30.1542 82.2871C36.3294 77.3201 45.2314 74.8165 56.7798 74.8165C67.1654 74.8165 75.105 77.2394 80.6386 82.0448C86.1722 86.8503 88.939 94.2401 88.939 104.174V107.728C88.939 110.756 88.4177 113.22 87.295 115.077C86.2123 116.935 84.2876 118.388 81.5208 119.519C78.7539 120.609 74.9446 121.538 70.0926 122.305C65.2406 123.073 58.9451 123.8 51.2462 124.446C44.3893 125.132 37.8933 126.142 31.7983 127.474C25.6632 128.847 20.2498 130.907 15.4781 133.693C10.7063 136.48 6.93703 140.316 4.17021 145.202C1.4034 150.088 0.0400391 156.428 0.0400391 164.181C0.0400391 170.239 1.12271 175.569 3.28804 180.132C5.45337 184.695 8.46078 188.532 12.3504 191.641C16.1998 194.751 20.6909 197.133 25.7835 198.708C30.9161 200.323 36.4497 201.09 42.5046 201.09C49.2011 201.09 55.0155 200.323 59.9476 198.829C64.8798 197.295 69.1703 195.437 72.7792 193.135C76.3881 190.874 79.4356 188.33 81.9618 185.543C84.4881 182.757 86.6534 180.132 88.4979 177.588H89.2598V180.617C89.2598 184.817 89.4603 188.33 89.9014 191.116C90.3024 193.902 91.1044 196.123 92.3073 197.82H105.38V197.052C104.377 196.204 103.455 194.427 102.613 191.722C101.771 189.016 101.37 184.817 101.37 179.082H101.249ZM88.939 151.259C88.939 156.145 87.9767 160.951 86.0519 165.676C84.1272 170.4 81.2401 174.6 77.3906 178.315C73.5411 182.03 68.8094 184.978 63.1956 187.159C57.5818 189.339 51.0858 190.43 43.7076 190.43C39.4972 190.43 35.5275 189.985 31.7582 189.057C27.9889 188.128 24.6607 186.593 21.8137 184.494C18.9667 182.394 16.7211 179.688 15.037 176.417C13.3528 173.146 12.5108 169.189 12.5108 164.666C12.5108 158.447 13.5132 153.48 15.5182 149.846C17.5231 146.212 20.33 143.344 23.9389 141.245C27.5478 139.145 31.8384 137.651 36.7705 136.803C41.7027 135.955 47.0358 135.187 52.7298 134.541C59.4263 133.693 66.0025 132.764 72.4584 131.755C78.9143 130.745 84.4079 129.049 88.8989 126.707V151.259H88.939Z" fill="#003FB0"/>
<path d="M137.178 5.23859H121.62V197.779H137.178V5.23859Z" fill="#003FB0"/>
<path d="M240.954 147.423C240.954 152.673 240.152 157.478 238.548 161.839C236.944 166.241 234.698 170.077 231.771 173.348C228.844 176.619 225.275 179.204 221.105 181.061C216.894 182.919 212.243 183.847 207.03 183.847C197.807 183.847 190.67 181.505 185.537 176.902C180.444 172.258 177.878 165.635 177.878 157.034V68.7592H157.548V157.559C157.548 171.208 161.478 181.828 169.337 189.42C177.196 197.012 187.863 200.808 201.256 200.808C210.799 200.808 218.538 198.91 224.473 195.114C230.408 191.318 235.741 186.23 240.432 179.809H240.954V197.779H261.284V68.7592H240.954V147.423Z" fill="#003FB0"/>
<path d="M598.073 78.2489C594.224 73.9281 589.532 70.5764 583.999 68.1131C578.465 65.6902 572.21 64.4384 565.152 64.4384C556.13 64.4384 548.431 66.2555 542.176 69.8899C535.88 73.5243 530.306 78.8547 525.494 85.9619H524.733V68.7592H485.275V197.779H526.216V126.182C526.216 118.106 528.261 111.524 532.351 106.435C536.441 101.388 541.935 98.8437 548.792 98.8437C555.649 98.8437 560.501 100.944 563.869 105.184C567.197 109.383 568.881 114.956 568.881 121.861V197.739H609.822V113.502C609.822 106.234 608.82 99.6109 606.815 93.6344C604.81 87.6579 601.883 82.489 598.033 78.2086L598.073 78.2489Z" fill="#003FB0"/>
<path d="M677.709 68.7592H630.232V197.779H677.709V68.7592Z" fill="#003FB0"/>
<path d="M422.842 64.4384C414.701 64.4384 407.363 66.4574 400.787 70.4956C394.211 74.5338 388.798 80.1065 384.467 87.2137H383.986C380.818 80.3084 376.167 74.7761 370.031 70.6572C363.896 66.5382 356.759 64.4384 348.619 64.4384C339.637 64.4384 332.098 66.4574 325.923 70.4956C319.788 74.5338 314.976 79.5008 311.487 85.4369H310.765V68.7592H281.694V197.779H310.765V120.125C310.765 110.514 313.091 102.801 317.783 97.0669C322.474 91.2923 328.73 88.4252 336.629 88.4252C343.767 88.4252 349.22 90.525 353.07 94.644C356.919 98.8033 358.844 105.022 358.844 113.341V197.779H387.915V120.125C387.915 110.514 390.241 102.801 394.933 97.0669C399.624 91.2923 405.92 88.4252 413.779 88.4252C420.917 88.4252 426.37 90.525 430.22 94.644C434.069 98.8033 435.994 105.022 435.994 113.341V197.779H465.025V110.474C465.025 96.1381 461.376 84.8716 454.078 76.7144C446.781 68.5169 436.395 64.4384 422.922 64.4384H422.842Z" fill="#003FB0"/>
<path d="M653.971 57.3716C669.449 57.3716 681.96 44.732 681.96 29.185C681.96 13.638 669.409 0.95813 653.971 0.95813C638.533 0.95813 625.942 13.5976 625.942 29.185C625.942 44.7724 638.493 57.3716 653.971 57.3716Z" fill="#003FB0"/>
</g>
<g clip-path="url(#clip1_1898_7726)">
<path d="M430.334 363.208V349.457H425.216V347.616H437.528V349.457H432.389V363.208H430.334ZM450.539 363.208V347.621H461.769V349.463H452.594V354.237H461.188V356.068H452.594V361.372H462.129V363.213H450.539V363.208ZM486.903 357.741L488.958 358.261C488.529 359.955 487.75 361.246 486.626 362.143C485.513 363.029 484.143 363.47 482.528 363.47C480.912 363.47 479.491 363.129 478.44 362.447C477.394 361.76 476.594 360.768 476.045 359.467C475.502 358.171 475.23 356.776 475.23 355.291C475.23 353.67 475.538 352.254 476.15 351.047C476.772 349.835 477.65 348.917 478.79 348.293C479.935 347.663 481.19 347.348 482.559 347.348C484.112 347.348 485.419 347.747 486.48 348.539C487.541 349.332 488.278 350.449 488.691 351.886L486.668 352.364C486.307 351.231 485.785 350.402 485.1 349.888C484.415 349.368 483.552 349.111 482.512 349.111C481.32 349.111 480.316 349.4 479.511 349.972C478.712 350.543 478.152 351.32 477.828 352.29C477.504 353.256 477.342 354.252 477.342 355.281C477.342 356.608 477.53 357.767 477.917 358.759C478.304 359.745 478.905 360.48 479.721 360.973C480.531 361.461 481.414 361.707 482.361 361.707C483.511 361.707 484.488 361.377 485.283 360.711C486.083 360.044 486.621 359.058 486.903 357.746V357.741ZM502.414 363.208V347.621H504.469V354.022H512.54V347.621H514.595V363.208H512.54V355.863H504.469V363.208H502.414ZM528.861 363.208V347.621H530.968L539.128 359.861V347.621H541.099V363.208H538.992L530.832 350.958V363.208H528.861ZM554.785 355.617C554.785 353.03 555.475 351.005 556.861 349.547C558.246 348.078 560.034 347.343 562.224 347.343C563.657 347.343 564.953 347.689 566.103 348.377C567.254 349.064 568.132 350.024 568.733 351.257C569.339 352.485 569.643 353.875 569.643 355.433C569.643 356.991 569.324 358.428 568.691 359.677C568.053 360.926 567.154 361.87 565.988 362.515C564.823 363.155 563.568 363.47 562.219 363.47C560.755 363.47 559.449 363.113 558.298 362.405C557.148 361.697 556.275 360.732 555.679 359.504C555.083 358.276 554.791 356.981 554.791 355.611L554.785 355.617ZM556.903 355.648C556.903 357.526 557.404 359.006 558.408 360.092C559.417 361.167 560.682 361.707 562.204 361.707C563.725 361.707 565.021 361.162 566.02 360.071C567.024 358.979 567.525 357.432 567.525 355.422C567.525 354.153 567.311 353.046 566.877 352.107C566.454 351.157 565.826 350.423 565 349.903C564.18 349.379 563.26 349.116 562.235 349.116C560.782 349.116 559.527 349.62 558.471 350.627C557.425 351.624 556.903 353.298 556.903 355.648ZM583.062 363.208V347.621H585.117V361.372H592.765V363.213H583.062V363.208ZM605.447 355.617C605.447 353.03 606.137 351.005 607.523 349.547C608.908 348.078 610.696 347.343 612.886 347.343C614.319 347.343 615.615 347.689 616.765 348.377C617.915 349.064 618.794 350.024 619.395 351.257C620.001 352.485 620.304 353.875 620.304 355.433C620.304 356.991 619.986 358.428 619.353 359.677C618.715 360.926 617.816 361.87 616.65 362.515C615.484 363.155 614.23 363.47 612.881 363.47C611.417 363.47 610.11 363.113 608.96 362.405C607.81 361.697 606.937 360.732 606.341 359.504C605.745 358.276 605.452 356.981 605.452 355.611L605.447 355.617ZM607.565 355.648C607.565 357.526 608.066 359.006 609.07 360.092C610.079 361.167 611.344 361.707 612.865 361.707C614.387 361.707 615.683 361.162 616.682 360.071C617.685 358.979 618.187 357.432 618.187 355.422C618.187 354.153 617.973 353.046 617.539 352.107C617.116 351.157 616.488 350.423 615.662 349.903C614.841 349.379 613.921 349.116 612.897 349.116C611.443 349.116 610.189 349.62 609.138 350.627C608.092 351.624 607.57 353.298 607.57 355.648H607.565ZM641.074 357.096V355.265L647.656 355.255V361.041C646.647 361.849 645.601 362.458 644.53 362.872C643.458 363.276 642.355 363.481 641.226 363.481C639.699 363.481 638.314 363.155 637.059 362.5C635.815 361.839 634.879 360.889 634.242 359.651C633.604 358.407 633.29 357.022 633.29 355.491C633.29 353.959 633.604 352.558 634.231 351.246C634.869 349.93 635.779 348.949 636.965 348.314C638.152 347.679 639.516 347.359 641.064 347.359C642.188 347.359 643.202 347.543 644.106 347.91C645.016 348.272 645.732 348.775 646.244 349.431C646.762 350.082 647.154 350.932 647.421 351.981L645.565 352.49C645.33 351.698 645.042 351.073 644.697 350.617C644.352 350.166 643.855 349.804 643.212 349.531C642.569 349.253 641.858 349.116 641.074 349.116C640.133 349.116 639.323 349.263 638.638 349.552C637.953 349.835 637.399 350.213 636.976 350.68C636.557 351.147 636.233 351.661 636.003 352.222C635.606 353.188 635.407 354.232 635.407 355.359C635.407 356.75 635.643 357.909 636.118 358.848C636.599 359.782 637.295 360.48 638.204 360.931C639.114 361.387 640.081 361.613 641.106 361.613C641.994 361.613 642.862 361.445 643.714 361.104C644.561 360.758 645.204 360.385 645.643 359.997V357.096H641.079H641.074ZM665.922 363.208V356.603L659.936 347.621H662.435L665.498 352.322C666.063 353.203 666.591 354.079 667.077 354.961C667.542 354.148 668.107 353.229 668.771 352.206L671.782 347.621H674.176L667.976 356.603V363.208H665.922Z" fill="#A4A4A4"/>
<path fill-rule="evenodd" clip-rule="evenodd" d="M649.376 274.877C649.376 272.396 648.126 271.142 645.654 271.142H624.251V278.602H645.654C648.126 278.602 649.376 277.374 649.376 274.867M676.827 341.436H649.376V318.704C649.376 315.31 648.126 312.356 645.654 309.885C643.165 307.404 640.222 306.15 636.814 306.15H624.251V341.42H596.801V243.594H645.601C654.18 243.594 661.541 246.668 667.647 252.806C673.748 258.929 676.827 266.326 676.827 274.956C676.827 281.078 675.169 286.744 671.803 291.917C671.04 293.092 670.224 294.199 669.341 295.243C674.328 302.026 676.827 309.843 676.827 318.715V341.446V341.431V341.436Z" fill="#A4A4A4"/>
<path fill-rule="evenodd" clip-rule="evenodd" d="M594.187 341.431H531.783V243.594H594.187V271.142H559.239V278.508H594.187V306.376H559.239V313.888H594.187V341.436V341.431Z" fill="#A4A4A4"/>
<path fill-rule="evenodd" clip-rule="evenodd" d="M531.789 271.142H514.48V341.431H487.013V271.142H469.385V243.594H531.783V271.142H531.789Z" fill="#A4A4A4"/>
<path fill-rule="evenodd" clip-rule="evenodd" d="M469.385 271.142H452.076V341.431H424.61V271.142H406.982V243.594H469.385V271.142Z" fill="#A4A4A4"/>
<path d="M406.987 271.142V243.594H351.092C354.203 245.708 356.88 249.071 359.018 253.625C361.888 259.731 363.602 267.69 363.602 274.904C363.602 281.341 361.982 287.264 358.777 292.51C361.982 297.761 363.602 303.679 363.602 310.121V312.744H363.514C363.148 319.218 361.485 326.101 358.997 331.395C356.853 335.948 354.177 339.317 351.072 341.431H406.987V313.883H372.05V306.37H406.987V278.502H372.05V271.137H406.987V271.142Z" fill="#A4A4A4"/>
<path d="M342.65 243.594H280.947V341.436H342.639C343.314 341.436 343.962 341.384 344.584 341.284V243.746C343.962 243.647 343.319 243.594 342.65 243.594ZM332.586 312.965C331.969 313.573 331.028 313.883 329.8 313.883H308.398V306.517H329.8C331.034 306.517 331.969 306.827 332.586 307.435C333.208 308.049 333.522 308.978 333.522 310.2C333.522 311.422 333.208 312.351 332.586 312.965ZM332.586 277.71C331.964 278.335 331.028 278.649 329.795 278.649H308.392V271.137H329.795C331.028 271.137 331.964 271.452 332.586 272.076C333.203 272.7 333.517 273.644 333.517 274.888C333.517 276.131 333.203 277.081 332.586 277.705V277.71Z" fill="#A4A4A4"/>
<path d="M356.629 330.277C359.138 324.942 360.753 317.886 360.952 311.391L360.983 310.121C360.983 303.905 359.352 298.218 356.132 293.223L355.672 292.51L356.132 291.796C359.352 286.802 360.983 281.115 360.983 274.898C360.983 269.61 359.844 261.541 356.65 254.737C354.48 250.12 350.679 244.701 344.579 243.736V341.273C350.659 340.303 354.454 334.883 356.623 330.272L356.629 330.277Z" fill="#A4A4A4"/>
<path d="M425.216 347.097H424.694V349.987H429.812V363.738H432.912V349.987H438.05V347.097H425.216ZM437.005 348.938H431.866V362.688H430.857V348.938H425.739V348.146H437.005V348.938Z" fill="#A4A4A4"/>
<path d="M453.117 360.842V356.587H461.711V353.707H453.117V349.982H462.291V347.091H450.017V363.727H462.652V360.836H453.117V360.842ZM461.606 362.683H451.062V348.146H461.246V348.938H452.071V354.761H460.665V355.543H452.071V361.896H461.606V362.688V362.683Z" fill="#A4A4A4"/>
<path d="M475.559 359.677V359.682L476.04 359.478L475.559 359.677Z" fill="#A4A4A4"/>
<path d="M641.08 354.74H640.557V357.621H645.121V359.745C644.744 360.034 644.227 360.328 643.516 360.621C642.732 360.936 641.926 361.094 641.106 361.094C640.159 361.094 639.276 360.884 638.434 360.469C637.624 360.065 637.012 359.457 636.579 358.617C636.155 357.778 635.925 356.702 635.925 355.37C635.925 354.305 636.113 353.329 636.479 352.432C636.688 351.928 636.981 351.467 637.363 351.037C637.723 350.638 638.21 350.302 638.837 350.045L638.623 349.526L638.842 350.045C639.448 349.788 640.186 349.652 641.074 349.652C641.796 349.652 642.439 349.777 643.009 350.024L643.212 349.541L643.197 349.578L643.003 350.024C643.578 350.265 643.991 350.58 644.274 350.947C644.566 351.33 644.833 351.892 645.058 352.647L645.204 353.14L645.701 353.004L647.557 352.495L647.421 351.991L647.928 351.86C647.646 350.759 647.227 349.835 646.658 349.111C646.077 348.377 645.283 347.821 644.305 347.432C643.333 347.034 642.251 346.845 641.074 346.845C639.454 346.845 638 347.181 636.725 347.863C635.434 348.56 634.446 349.62 633.766 351.031L634.242 351.262L634.158 351.22L633.766 351.031C633.102 352.416 632.773 353.911 632.773 355.501C632.773 357.091 633.107 358.575 633.787 359.897C634.472 361.235 635.491 362.263 636.824 362.972L637.049 362.536L637.065 362.51L636.824 362.972C638.157 363.664 639.626 364.01 641.231 364.01C642.423 364.01 643.589 363.795 644.718 363.37L644.551 362.919V362.93L644.718 363.37C645.847 362.935 646.935 362.3 647.985 361.461L648.184 361.303V354.74H647.661L641.08 354.751V354.74ZM647.138 360.774C646.229 361.477 645.298 362.012 644.352 362.374C643.338 362.757 642.298 362.945 641.231 362.945C639.783 362.945 638.481 362.636 637.31 362.027C636.16 361.419 635.298 360.548 634.712 359.404C634.116 358.245 633.818 356.944 633.818 355.485C633.818 354.027 634.116 352.71 634.707 351.472C635.298 350.244 636.134 349.353 637.216 348.77C638.319 348.177 639.595 347.873 641.069 347.873C642.136 347.873 643.082 348.046 643.913 348.387L644.112 347.889V347.899L643.913 348.382C644.755 348.718 645.387 349.174 645.837 349.741C646.213 350.218 646.527 350.842 646.767 351.603L645.91 351.839C645.696 351.225 645.434 350.701 645.115 350.286C644.702 349.746 644.127 349.337 643.422 349.038C642.705 348.733 641.926 348.581 641.08 348.581C640.092 348.581 639.208 348.733 638.445 349.059C637.702 349.368 637.08 349.783 636.599 350.318L636.971 350.654L636.594 350.318C636.139 350.827 635.784 351.393 635.528 352.007L635.946 352.18H635.962L635.528 352.007C635.104 353.041 634.895 354.153 634.895 355.344C634.895 356.792 635.141 358.04 635.664 359.069L636.15 358.822L636.098 358.848L635.664 359.069C636.192 360.102 636.971 360.878 637.985 361.387C638.968 361.875 640.018 362.122 641.121 362.122C642.078 362.122 643.014 361.938 643.923 361.576L643.725 361.078V361.094L643.923 361.581C644.796 361.219 645.502 360.826 645.999 360.38L646.177 360.223V356.561H641.613V355.779L647.149 355.769V360.763L647.138 360.774Z" fill="#A4A4A4"/>
<path d="M585.639 360.842V347.091H582.539V363.727H593.288V360.836H585.639V360.842ZM592.242 362.683H583.585V348.146H584.594V361.896H592.242V362.688V362.683Z" fill="#A4A4A4"/>
<path d="M618.015 351.892C617.555 350.858 616.865 350.045 615.945 349.468C615.04 348.891 614.021 348.602 612.902 348.602C611.313 348.602 609.933 349.158 608.783 350.255L609.143 350.633L609.504 351.01C610.461 350.097 611.585 349.646 612.902 349.646C613.833 349.646 614.653 349.882 615.385 350.349L615.662 349.909L615.385 350.355C616.117 350.816 616.676 351.461 617.058 352.327C617.45 353.193 617.659 354.221 617.659 355.428C617.659 357.348 617.178 358.754 616.295 359.719L616.676 360.071L616.755 360.144L616.29 359.719C615.401 360.695 614.272 361.188 612.86 361.188C611.449 361.188 610.356 360.705 609.452 359.74C608.563 358.775 608.087 357.437 608.087 355.653C608.087 353.366 608.6 351.871 609.494 351.016L608.772 350.255C607.575 351.399 607.042 353.25 607.042 355.653C607.042 357.626 607.57 359.247 608.683 360.454C609.797 361.644 611.198 362.237 612.855 362.237C614.512 362.237 615.955 361.634 617.053 360.433C618.172 359.215 618.694 357.521 618.694 355.433C618.694 354.106 618.47 352.925 618.004 351.902L618.015 351.892Z" fill="#A4A4A4"/>
<path d="M638.842 350.04H638.847L638.643 349.557L638.842 350.04Z" fill="#A4A4A4"/>
<path d="M619.86 351.026C619.217 349.704 618.271 348.665 617.032 347.926C615.793 347.186 614.408 346.819 612.886 346.819C610.565 346.819 608.636 347.6 607.146 349.185C605.646 350.769 604.925 352.936 604.925 355.617C604.925 357.064 605.238 358.439 605.866 359.735C606.503 361.052 607.444 362.096 608.678 362.856C609.917 363.622 611.323 364 612.871 364C614.303 364 615.652 363.659 616.891 362.977L616.64 362.515L616.624 362.489L616.891 362.972C618.151 362.274 619.123 361.251 619.808 359.913C620.488 358.581 620.817 357.085 620.817 355.433C620.817 353.78 620.498 352.332 619.855 351.026H619.86ZM618.883 359.436C618.292 360.595 617.466 361.461 616.394 362.054C615.307 362.646 614.136 362.945 612.876 362.945C611.501 362.945 610.293 362.615 609.227 361.959C608.161 361.303 607.355 360.412 606.807 359.273C606.247 358.119 605.97 356.902 605.97 355.611C605.97 353.119 606.634 351.241 607.904 349.903L607.575 349.589L607.518 349.531L607.904 349.898C609.18 348.545 610.827 347.863 612.886 347.863C614.235 347.863 615.432 348.183 616.499 348.823C617.56 349.457 618.37 350.339 618.924 351.482L619.374 351.262H619.39L618.924 351.488C619.489 352.631 619.782 353.943 619.782 355.433C619.782 356.923 619.479 358.271 618.888 359.436H618.883Z" fill="#A4A4A4"/>
<path d="M488.958 358.266L489.089 357.757L487.034 357.238L486.511 357.106L486.396 357.636C486.13 358.869 485.638 359.74 484.954 360.312C484.258 360.889 483.406 361.188 482.366 361.188C481.514 361.188 480.73 360.968 479.998 360.527C479.297 360.102 478.764 359.462 478.414 358.57C478.063 357.652 477.875 356.561 477.875 355.286C477.875 354.315 478.027 353.376 478.335 352.464L477.802 352.285L477.839 352.296L478.335 352.464C478.628 351.593 479.125 350.911 479.83 350.407C480.531 349.909 481.42 349.641 482.523 349.641C483.474 349.641 484.216 349.877 484.792 350.313C485.361 350.743 485.837 351.462 486.177 352.532L486.323 352.993L486.794 352.883L488.817 352.406L489.35 352.28L489.199 351.75C488.754 350.218 487.954 348.996 486.794 348.125C485.628 347.254 484.206 346.829 482.559 346.829C481.106 346.829 479.762 347.165 478.534 347.842C477.3 348.518 476.349 349.515 475.685 350.816L476.145 351.052L476.061 351.01L475.685 350.816C475.026 352.112 474.707 353.607 474.707 355.296C474.707 356.849 474.99 358.313 475.565 359.677C476.15 361.057 477.013 362.138 478.152 362.888L478.435 362.452L478.152 362.893C479.313 363.643 480.782 364 482.523 364C484.264 364 485.727 363.528 486.945 362.557C488.174 361.576 489.005 360.175 489.46 358.397L489.591 357.888L489.084 357.757L488.953 358.266H488.958ZM486.302 361.734C485.293 362.536 484.044 362.951 482.528 362.951C480.923 362.951 479.663 362.625 478.722 362.012C477.776 361.387 477.039 360.485 476.527 359.268C476.014 358.04 475.753 356.718 475.753 355.296C475.753 353.738 476.046 352.411 476.615 351.294C477.19 350.171 478.001 349.332 479.041 348.76L478.79 348.298L478.811 348.335L479.041 348.76C480.102 348.172 481.273 347.878 482.559 347.878C484.023 347.878 485.215 348.251 486.166 348.964C486.992 349.583 487.615 350.428 488.017 351.514L487.008 351.755C486.632 350.774 486.109 350.003 485.419 349.478C484.624 348.88 483.647 348.597 482.517 348.597C481.237 348.597 480.128 348.907 479.214 349.557C478.325 350.197 477.698 351.063 477.337 352.133C476.992 353.151 476.824 354.205 476.824 355.286C476.824 356.661 477.023 357.888 477.431 358.953C477.854 360.039 478.529 360.868 479.449 361.424C480.343 361.964 481.315 362.232 482.355 362.232C483.615 362.232 484.713 361.865 485.612 361.109C486.407 360.448 486.951 359.525 487.28 358.376L488.305 358.633C487.881 359.987 487.207 361.004 486.302 361.728V361.734Z" fill="#A4A4A4"/>
<path d="M647.567 352.485L648.064 352.348L647.933 351.85L647.426 351.981L647.567 352.485Z" fill="#A4A4A4"/>
<path d="M674.181 347.097H671.505L671.348 347.333L668.337 351.918L668.797 352.222L668.76 352.196L668.337 351.918C667.872 352.637 667.453 353.303 667.082 353.922C666.716 353.292 666.34 352.668 665.937 352.039L665.53 352.306L665.498 352.327L665.937 352.039L662.874 347.338L662.717 347.102H658.953L659.497 347.915L665.394 356.765V363.732H668.494V356.771L674.6 347.92L675.169 347.097H674.171H674.181ZM667.553 356.309L667.459 356.445V362.688H666.45V356.451L666.361 356.319L660.919 348.151H662.158L665.064 352.616C665.624 353.487 666.141 354.352 666.622 355.218L667.072 356.031L667.532 355.228C667.992 354.426 668.551 353.518 669.21 352.5L672.064 348.156H673.178L667.548 356.319L667.553 356.309Z" fill="#A4A4A4"/>
<path d="M539.123 347.097H538.6V358.129L531.402 347.327L531.245 347.097H528.333V363.732H531.35V352.689L538.548 363.502L538.705 363.732H541.617V347.097H539.123ZM540.571 362.683H539.264L531.261 350.669L530.304 349.232V362.683H529.379V348.146H530.686L538.689 360.149L539.646 361.587V348.146H540.571V362.683Z" fill="#A4A4A4"/>
<path d="M512.54 347.097H512.017V353.497H504.991V347.097H501.891V363.732H504.991V356.388H512.017V363.732H515.117V347.097H512.54ZM514.072 362.683H513.063V355.338H503.946V362.683H502.937V348.146H503.946V354.546H513.063V348.146H514.072V362.683Z" fill="#A4A4A4"/>
<path d="M567.348 351.886C566.888 350.853 566.198 350.035 565.277 349.463C564.373 348.886 563.354 348.597 562.235 348.597C560.646 348.597 559.26 349.153 558.116 350.25C556.918 351.393 556.385 353.245 556.385 355.648C556.385 357.621 556.913 359.242 558.032 360.448L558.413 360.092L558.434 360.071L558.032 360.448C559.145 361.634 560.546 362.227 562.204 362.227C563.861 362.227 565.304 361.623 566.401 360.422C567.52 359.205 568.043 357.51 568.043 355.422C568.043 354.095 567.818 352.909 567.348 351.886ZM565.633 359.714L566.015 360.065L566.093 360.139L565.628 359.714C564.734 360.69 563.61 361.183 562.198 361.183C560.787 361.183 559.694 360.7 558.785 359.735C557.896 358.769 557.42 357.432 557.42 355.648C557.42 353.361 557.933 351.865 558.826 351.01C559.783 350.097 560.907 349.646 562.23 349.646C563.16 349.646 563.981 349.882 564.713 350.349L564.99 349.909L565 349.888L564.713 350.349C565.445 350.811 566.004 351.456 566.386 352.322C566.778 353.188 566.987 354.216 566.987 355.422C566.987 357.343 566.506 358.748 565.623 359.714H565.633Z" fill="#A4A4A4"/>
<path d="M569.198 351.026C568.555 349.704 567.609 348.665 566.37 347.926C565.131 347.186 563.746 346.819 562.225 346.819C559.903 346.819 557.974 347.6 556.484 349.185C554.984 350.769 554.263 352.936 554.263 355.617C554.263 357.064 554.576 358.439 555.204 359.735C555.841 361.052 556.782 362.096 558.016 362.856C559.255 363.622 560.661 364 562.209 364C563.641 364 564.99 363.659 566.229 362.977L565.978 362.515L565.962 362.489L566.229 362.972C567.489 362.274 568.461 361.251 569.146 359.913C569.826 358.581 570.155 357.085 570.155 355.433C570.155 353.78 569.836 352.332 569.193 351.026H569.198ZM568.221 359.436C567.63 360.595 566.804 361.461 565.732 362.054C564.645 362.646 563.474 362.945 562.214 362.945C560.839 362.945 559.632 362.615 558.565 361.959C557.499 361.303 556.694 360.412 556.145 359.273C555.585 358.119 555.308 356.902 555.308 355.611C555.308 353.119 555.972 351.241 557.243 349.903L556.913 349.589L556.856 349.531L557.243 349.898C558.518 348.545 560.165 347.863 562.225 347.863C563.573 347.863 564.77 348.183 565.837 348.823C566.898 349.457 567.703 350.339 568.263 351.482L568.712 351.262H568.728L568.263 351.488C568.827 352.631 569.12 353.943 569.12 355.433C569.12 356.923 568.817 358.271 568.226 359.436H568.221Z" fill="#A4A4A4"/>
</g>
<defs>
<clipPath id="clip0_1898_7726">
<rect width="682" height="228.198" fill="white" transform="translate(0 0.95813)"/>
</clipPath>
<clipPath id="clip1_1898_7726">
<rect width="395.88" height="120.406" fill="white" transform="translate(280.947 243.594)"/>
</clipPath>
</defs>
</svg>
